<svg xmlns="http://www.w3.org/2000/svg" width="370" height="370">
  <rect id="backgroundrect" width="100%" height="100%" x="0" y="0" fill="none" stroke="none" class="" style="" />

  <g class="currentLayer" style="">
    <title>Layer 1</title>
    <g id="svg_1" class="">
      <defs transform="translate(-1.6167869567871094,-0.9999611377716064) translate(0,0.6172839403152466) translate(-61.7283935546875,-3.0864198207855225) translate(-52.46913528442383,-12.34567928314209) ">
        <clipPath id="svg_6">
          <path id="svg_10" fill="#1890d0" d="m56.294136,24.719108c0,12.7075 -10.303998,23 -22.999995,23c-12.695997,0 -22.999995,-10.2925 -22.999995,-23c0,-12.7075 10.303998,-23 22.999995,-23c12.695997,0 22.999995,10.2925 22.999995,23" />
        </clipPath>
        <linearGradient xmlns="http://www.w3.org/2000/svg" x1="-8.381957054138184" id="svg_8" y1="1" x2="-8.381957054138184"
          y2="0">
          <stop stop-color="#2a2c2f" />
          <stop stop-color="#424649" offset="1" />
        </linearGradient>
        <linearGradient xmlns="http://www.w3.org/2000/svg" y2="-0.3152585925888267" x2="-0.9098477249259781" y1="0.6489655698337555"
          x1="-0.9330805414833004" id="2">
          <stop stop-color="#ff9300" />
          <stop offset="1" stop-color="#ffd702" />
        </linearGradient>
      </defs>
      <rect transform="matrix(8.051542595592558,0,0,8.051542595592558,-3927.237354696539,-4055.786727605049) " id="svg_12"
        stroke-width="1.515" rx="23" fill="url(#svg_8)" y="503.72791606146234" x="487.7621250886268" height="46" width="46" />

      <g stroke="null" id="svg_24">
        <g id="svg_20">
          <path fill="url(#2)" stroke="null" id="svg_23" d="m201.56255627156918,236.01640714235378 l-36.530395142278536,0 c-0.09814409113610512,-5.281482870459888 -0.14721613670415765,-8.46035334776661 -0.14721613670415765,-9.633923793470373 c0,-11.834680277759642 1.9562279860349059,-21.565916432780224 5.868683958104719,-29.195371924233537 c3.912455972069812,-7.6776958074354695 11.78560823219159,-16.23536151675228 23.522144418815127,-25.8202132646546 c11.736536186623537,-9.535779702334269 18.77879059043202,-15.79537656581161 21.02778739070344,-18.77879059043202 c3.569783382679344,-4.6452097372470025 5.33055491602794,-9.829380246156683 5.33055491602794,-15.452703976421141 c0,-7.8249119441396235 -3.1297984317386707,-14.52449375855764 -9.38939529521601,-20.147817488822096 c-6.259596863477341,-5.575083414282303 -14.670878165675896,-8.362209256630505 -25.282084222577822,-8.362209256630505 c-10.221124881115205,0 -18.77879059043202,2.93351024946646 -25.673828857536346,8.753122162003125 c-6.846797951122172,5.8196119125366685 -11.590151779505279,14.71995021124395 -14.18182116916717,26.651942850553798 l-36.92130804765115,-4.59696942126485 c1.0263543089996063,-17.115331418633627 8.31313721106245,-31.639825177191266 21.810444931034585,-43.57181781650111 c13.545548035954287,-11.931992639309849 31.24808054223275,-17.89882068855067 53.254813655539536,-17.89882068855067 c23.08215946787445,0 41.46920542334795,6.06414041079103 55.161969596006394,18.143349186805033 c13.643692127090391,12.078377046428106 20.489658348626662,26.113813808477015 20.489658348626662,42.202790918111035 c0,8.851266253139231 -2.5425973440938385,17.262547555337786 -7.530479670731309,25.184771861027617 c-5.036954372205525,7.92222430568983 -15.747136249829454,18.729718544863967 -32.177954219268045,32.37341067195436 c-8.509425393334661,7.090494719790636 -13.790908263794549,12.763722225209044 -15.84444861137966,17.067091102651478 c-2.053540347585112,4.303368877442433 -2.9834140246204117,11.981064684877902 -2.7871258423482024,23.08215946787445 zm-36.530395142278536,54.13478355742089 l0,-40.24656293207613 l40.24656293207613,0 l0,40.24656293207613 l-40.24656293207613,0 z"
            class="fil0" stroke-width="0" />
        </g>
      </g>
    </g>
  </g>
</svg>